<svg xmlns="http://www.w3.org/2000/svg" width="135" height="43" viewBox="0 0 135 43"><defs><style>.a{fill:#2a3162;}.b,.f{fill:#ed6c62;}.c{fill:#a462dd;}.d{fill:#fcc40a;}.e{fill:#40b9c5;}.f{font-size:13px;font-family:CircularSpotifyTxT-Bold, Circular Spotify Tx T;font-weight:700;}</style></defs><g transform="translate(40.826 0.001)"><path class="a" d="M213.8,41.582a5.551,5.551,0,0,0,5.839,4.748,7.691,7.691,0,0,0,5.219-2.135l1.826,2.65a10,10,0,0,1-7.153,2.908,9.443,9.443,0,1,1-.365-18.882,8.094,8.094,0,0,1,8.284,8.282,11.6,11.6,0,0,1-.292,2.429Zm9.817-3.02a4.348,4.348,0,0,0-4.6-4.417,5.262,5.262,0,0,0-5.146,4.417Z" transform="translate(-209.902 -24.868)"/><path class="a" d="M306.86,43.832c1.569,1.656,3.139,2.576,5.036,2.576,1.642,0,2.88-.7,2.88-2.024,0-1.068-.766-1.509-2.518-2.248l-1.826-.773c-3.175-1.325-4.672-2.724-4.672-5.264,0-3.239,2.664-5.227,6.314-5.227a7.641,7.641,0,0,1,6.2,2.8L316.2,36.064a5.815,5.815,0,0,0-4.2-1.84c-1.5,0-2.445.589-2.445,1.73,0,.92.62,1.4,2.372,2.135l1.715.7c3.394,1.436,4.89,2.908,4.89,5.448a4.88,4.88,0,0,1-1.9,4.085,7.663,7.663,0,0,1-4.744,1.436,8.971,8.971,0,0,1-7.226-3.5Z" transform="translate(-286.252 -24.873)"/><path class="a" d="M393,30.876a8.524,8.524,0,0,1,7.554,4.2l-2.7,2.135a5.746,5.746,0,1,0-4.818,8.981,5.834,5.834,0,0,0,4.818-2.724l2.7,2.1a8.653,8.653,0,0,1-7.554,4.2,9.441,9.441,0,0,1,0-18.882Z" transform="translate(-349.763 -24.873)"/><path class="a" d="M492.313,49.356h-3.577V47.329a7.139,7.139,0,0,1-5.729,2.43c-3.759,0-6.24-2.1-6.24-5.227s2.555-5.153,6.6-5.153h5.08V38.2c0-2.5-1.387-3.863-3.832-3.863-2.007,0-3.467.883-4.963,2.687l-2.226-2.282a8.754,8.754,0,0,1,7.554-3.863c4.416,0,7.335,2.687,7.335,7.545Zm-3.863-7.178h-4.6c-2.043,0-3.175.736-3.175,2.208,0,1.509,1.278,2.392,3.138,2.392a4.377,4.377,0,0,0,4.636-4.27Z" transform="translate(-424.885 -24.876)"/><path class="a" d="M574.737.007h3.832V24.488h-3.832Z" transform="translate(-503.803 -0.007)"/><path class="a" d="M622.375,49.356H618.8V47.329a7.139,7.139,0,0,1-5.729,2.43c-3.758,0-6.241-2.1-6.241-5.227s2.555-5.153,6.6-5.153H618.5V38.2c0-2.5-1.387-3.863-3.832-3.863-2.007,0-3.467.883-4.963,2.687l-2.226-2.282a8.754,8.754,0,0,1,7.554-3.863c4.416,0,7.335,2.687,7.335,7.545Zm-3.868-7.177h-4.6c-2.044,0-3.175.736-3.175,2.208,0,1.509,1.278,2.392,3.138,2.392a4.377,4.377,0,0,0,4.636-4.27Z" transform="translate(-529.654 -24.876)"/></g><rect class="b" width="24.493" height="5.432" rx="2.716" transform="translate(8.233)"/><rect class="c" width="24.544" height="5.432" rx="2.716" transform="translate(8.181 16.388)"/><rect class="d" width="24.557" height="5.432" rx="2.716" transform="translate(0 8.21)"/><rect class="e" width="8.21" height="5.432" rx="2.716" transform="translate(16.369 24.568)"/><text class="f" transform="translate(73 38)"><tspan x="0" y="0">#covid-19</tspan></text></svg>