<?xml version="1.0" encoding="UTF-8"?>
<svg width="101px" height="34px" viewBox="0 0 101 34" version="1.1" xmlns="http://www.w3.org/2000/svg" xmlns:xlink="http://www.w3.org/1999/xlink">
    <!-- Generator: sketchtool 63.1 (101010) - https://sketch.com -->
    <title>5C351E42-AB17-4E64-B009-50C7CE91AA5F</title>
    <desc>Created with sketchtool.</desc>
    <g id="Dashboard" stroke="none" stroke-width="1" fill="none" fill-rule="evenodd">
        <g id="[Backoffice---Desktop]-Dashboard" transform="translate(-110.000000, -21.000000)" fill="#0065FF">
            <g id="Logos-/-Dryve-/-Primary" transform="translate(110.000000, 21.000000)">
                <path d="M73.0727777,7.51033336 C73.2837187,7.47930424 79.6374465,7.47138191 79.9497187,7.49944016 C79.9974039,7.59516832 79.9295187,7.67406152 79.9000465,7.75394501 C79.6030072,8.55079938 72.9664793,26.127479 72.9244236,26.2341004 L72.9244236,26.2341004 L66.2259711,26.2341004 C66.1468269,26.1621392 61.0107285,12.4931489 59.2649187,7.86617802 C59.2361088,7.7892654 59.200676,7.71532366 59.1523285,7.60342074 L59.152,7.604 L59.1155098,7.69219241 C59.1043734,7.71872243 59.0943164,7.74266058 59.0851669,7.76541283 L59.0602695,7.83151783 C58.3426728,9.8860421 57.6257383,11.9412266 56.9091351,13.9960809 C55.51964,17.9800227 54.130476,21.9639644 52.7406498,25.9479062 C52.379699,26.9821004 51.9402662,27.9813042 51.3759908,28.9227411 C50.8845678,29.7440227 50.3070465,30.4979644 49.612299,31.1598091 C48.5572629,32.1649547 47.3227449,32.8565081 45.9253023,33.2651683 C45.21764,33.4721392 44.4960695,33.6051683 43.7615842,33.6738285 C43.1605515,33.729945 42.5595187,33.7609741 41.956499,33.7533819 C41.7740367,33.7514013 41.5912433,33.7441392 41.3988465,33.7160809 C41.3942105,33.6295955 41.3869252,33.5563139 41.3865941,33.4827023 C41.368381,30.8561198 41.3806334,28.0836343 41.4127547,27.8911877 C41.465076,27.8845858 41.5213711,27.8720421 41.5776662,27.8713819 C41.9710695,27.8651101 42.3641416,27.8571877 42.755558,27.8116343 C43.2387023,27.7555178 43.713899,27.667712 44.1685646,27.4894596 C44.4768629,27.3683139 44.5639547,27.3504887 44.8123154,27.1514402 C45.6521056,26.5483528 45.9657023,25.4487994 45.5703121,24.4951489 L45.5703121,24.4951489 L45.5464695,24.437712 C43.1731351,18.7402363 40.9859056,13.4893819 38.6142269,7.79124599 C38.5771383,7.70211977 38.51124,7.61827511 38.53144,7.50208094 C38.5675351,7.49580909 38.5983318,7.48590618 38.6297908,7.48590618 L38.6297908,7.48590618 L45.4527547,7.48524599 C45.5451449,7.57734307 45.5597154,7.68924599 45.594817,7.78893531 C46.3349318,9.87977026 47.0723974,11.9715955 47.8101941,14.0630906 C48.279099,15.3920615 48.7480039,16.7210324 49.21724,18.0496732 C49.2417449,18.1189936 49.2695613,18.1873237 49.3089678,18.290644 C49.3417515,18.2077897 49.3672498,18.157945 49.3814892,18.1051295 C49.6328301,17.1798673 49.8828465,16.2542751 50.1325318,15.3286829 L50.1325318,15.3286829 L52.1926006,7.6984887 C52.2098203,7.63444987 52.2333318,7.57239162 52.2512138,7.5175955 C52.2684334,7.50769259 52.2753875,7.50307123 52.2823416,7.49977026 C52.289958,7.49613919 52.2979056,7.49085764 52.3058531,7.49085764 C56.8352892,7.48854696 61.3650564,7.48656637 65.8944924,7.48524599 C65.9358859,7.48491589 65.9776105,7.48953725 66.0358924,7.49283822 C66.0713252,7.58262463 66.1117252,7.67208094 66.1421908,7.76516832 L66.1421908,7.76516832 L67.5141351,11.9478285 C68.169476,13.9439256 68.8244859,15.9403528 69.4834695,17.9354596 C69.5076433,18.008411 69.5000269,18.10678 69.6063252,18.1526635 C69.8000465,17.5551877 69.9921121,16.961013 70.1855023,16.3671683 L70.1855023,16.3671683 L70.759381,14.6074207 C70.9527711,14.0129159 71.1441744,13.4177508 71.3375646,12.8229159 C71.5309547,12.228411 71.7266629,11.6342363 71.9200531,11.0397314 C72.1107941,10.4528188 72.2975613,9.86491589 72.4912826,9.27899356 C72.6866597,8.68679938 72.8671351,8.08965375 73.0727777,7.51033336 Z M87.4409383,7.06688094 C88.1658203,6.96229 88.8943449,6.93781298 89.6198892,6.98600715 C92.1316433,7.15204599 94.3062892,8.07631783 96.0514367,9.91726929 C97.1485285,11.0742596 97.8750662,12.4402013 98.294299,13.9718518 C98.5830597,15.0261819 98.6890269,16.100978 98.657899,17.1919489 C98.6403482,17.8118712 98.5578924,18.4209004 98.3996039,19.0206868 C98.3909941,19.052046 98.3794039,19.082745 98.3585416,19.1457936 L98.3585416,19.1457936 L87.6118933,19.1455872 L87.6118933,19.1455872 L86.8965318,19.1461237 C86.4223285,19.1467838 85.9481252,19.1421625 85.4480924,19.1494246 C85.4858433,19.2444926 85.5083613,19.3144732 85.5404826,19.3798324 C85.9713056,20.2595411 86.6673777,20.8352305 87.5916105,21.1425508 C88.0535613,21.2963761 88.5297515,21.3772499 89.0168695,21.4062984 C89.3847744,21.4284149 89.7510236,21.4379877 90.1199219,21.4076188 C91.1421744,21.3241042 92.0531613,20.9735411 92.8399678,20.3123567 C92.90984,20.2539295 92.9790498,20.194512 93.0442859,20.1390557 C93.2204564,20.2225703 97.3081416,23.0656965 97.5515351,23.2736576 C97.5230564,23.3172305 97.4972269,23.3664149 97.4627875,23.4083372 C96.5445154,24.5177936 95.4123219,25.3397353 94.0864072,25.8992499 C93.2592006,26.2478324 92.398217,26.4736188 91.5097482,26.6106091 C90.6630039,26.7409974 89.8112924,26.7819295 88.9575941,26.74958 C87.1544957,26.6812499 85.4288859,26.2953664 83.8383842,25.4176382 C81.5001515,24.1272887 79.9957482,22.1774052 79.2983515,19.6042984 C79.0463482,18.674745 78.9364072,17.7088809 78.9549515,16.7459877 C78.9907154,14.8984343 79.4291547,13.1624538 80.388158,11.5869004 C81.6147285,9.57198773 83.3698105,8.2156188 85.6106859,7.4788421 C86.2070826,7.28276443 86.8190433,7.15666734 87.4409383,7.06688094 Z M7.39262364,0.000284748145 L10.9585062,0.0103954997 C13.7113357,0.0259100628 16.203221,0.863036276 18.4086636,2.51055084 C20.2607718,3.89431783 21.6025816,5.6768421 22.487739,7.80365764 C22.9129324,8.82464793 23.1937456,9.88524987 23.3609751,10.9785314 C23.5169456,11.9982013 23.5550275,13.0231528 23.4891292,14.0484343 C23.3407751,16.3538324 22.6884144,18.508046 21.4290603,20.4566091 C19.6481488,23.2119295 17.1542767,25.0013858 13.976916,25.8368615 C13.3682669,25.9972887 12.7453783,26.1022596 12.1188472,26.1610169 C11.5602013,26.2135023 11.0008931,26.2425508 10.4402603,26.2422235 C7.07480785,26.2422235 3.71001768,26.2422235 0.344896373,26.2418906 C0.245883259,26.2418906 0.146870144,26.2385897 0.0418963734,26.2366091 C0.026994734,26.1828033 0.00911276682,26.144512 0.00679473404,26.1052305 C0.00149637338,26.022046 0.00315211109,25.9385314 0.00315211109,25.8550169 C0.00315211109,17.3688809 0.00282096355,8.88274501 0.00414555371,0.396609092 C0.00414555371,0.273812975 -0.0180413315,0.147055694 0.0402406357,0.0146867618 C0.112761947,0.0113857909 0.186938996,0.00478384919 0.260784898,0.00478384919 C3.82658162,0.00478384919 7.39270949,-0.00908022848 10.9585062,0.0103954997 Z M36.9998495,7.49478579 L36.9998495,13.1533101 L33.4598823,13.1533101 C32.2978856,13.1533101 31.3557708,14.0924363 31.3557708,15.2510771 L31.3557708,15.2510771 L31.3557708,26.0478926 L25.1467544,26.0478926 L25.1467544,13.6841062 C25.1467544,10.2656207 27.926738,7.49478579 31.3557708,7.49478579 L31.3557708,7.49478579 L36.9998495,7.49478579 Z M8.94517055,6.47674987 L7.1622308,6.47963822 C7.09732588,6.47963822 7.03242096,6.48789065 6.96056195,6.4931722 C6.95095867,6.53443433 6.93969965,6.56546346 6.93771277,6.59715278 C6.91504099,6.97211949 6.93147461,18.6525986 6.95791551,19.6773488 L6.96089309,19.7462434 L7.22018162,19.7462434 C8.37654883,19.7459101 9.53291605,19.7452499 10.6892833,19.7462434 C11.1065292,19.7465703 11.5247685,19.721813 11.934398,19.6449004 C13.4543652,19.361347 14.6912013,18.6410751 15.6021882,17.4355605 C16.3413095,16.4574829 16.7270964,15.3410945 16.8701521,14.1352499 C16.9582374,13.3925314 16.946316,12.6488227 16.8456472,11.9034635 C16.773457,11.3733275 16.6472898,10.8491334 16.4548931,10.3496965 C15.8856505,8.872512 14.9190308,7.76173531 13.4990701,7.08074501 C12.6241783,6.66119162 11.691998,6.48855084 10.7283587,6.4812887 C9.539539,6.47237608 8.35071932,6.47864793 7.1622308,6.47963822 Z M91.5488236,13.1244926 C90.6229351,12.303211 89.6569777,12.1870169 88.6651908,12.2332305 C88.3717941,12.2470945 88.0774039,12.2909974 87.7955974,12.3755023 C86.5253154,12.7574246 85.7772531,13.5902596 85.3951088,14.7297547 C85.3858367,14.757813 85.3937842,14.7914829 85.3937842,14.8370363 C87.7396334,14.8370363 90.0745547,14.8370363 92.4091449,14.8363761 C92.4399416,14.8363761 92.4710695,14.8268033 92.5141187,14.8195411 C92.4439154,14.5026479 92.3217219,14.2194246 92.176017,13.9437936 C92.0140859,13.6384538 91.8081121,13.3542402 91.5488236,13.1244926 Z" id="Logo-Dryve"></path>
            </g>
        </g>
    </g>
</svg>